# AST/ASF file generated using VICON BodyLanguage
# -----------------------------------------------
:version 1.10
:name VICON
:units
  mass 1.0
  length 0.45
  angle deg
:documentation
   .ast/.asf automatically generated from VICON data using
   VICON BodyBuilder and BodyLanguage model FoxedUp or BRILLIANT.MOD
:root
   order TX TY TZ RX RY RZ
   axis XYZ
   position 0 0 0  
   orientation 0 -0 0 
:bonedata
  begin
     id 1 
     name lhipjoint
     direction 0.500677 -0.737119 0.453848 
     length 2.34727 
     axis 0 -0 0  XYZ
  end
  begin
     id 2 
     name lfemur
     direction 0.34202 -0.939693 0  
     length 7.53653  
     axis 0 -0 20  XYZ
    dof rx ry rz
    limits (-160.0 20.0)
           (-70.0 70.0)
           (-60.0 70.0)
  end
  begin
     id 3 
     name ltibia
     direction 0.34202 -0.939693 0   
     length 6.85572   
     axis 0 -0 20   XYZ
    dof rx
    limits (-10.0 170.0)
  end
  begin
     id 4 
     name lfoot
     direction 0.155313 -0.426718 0.890949   
     length 2.18324   
     axis -90 -1.13533e-015 20   XYZ
    dof rx rz
    limits (-45.0 90.0)
           (-70.0 20.0)
  end
  begin
     id 5 
     name ltoes
     direction 1.53474e-011 -4.21647e-011 1   
     length 1.06748   
     axis -90 -1.13533e-015 20   XYZ
    dof rx
    limits (-90.0 20.0)
  end
  begin
     id 6 
     name rhipjoint
     direction -0.632471 -0.659587 0.406111   
     length 2.62319  
     axis 0 -0 0  XYZ 
  end
  begin
     id 7 
     name rfemur
     direction -0.34202 -0.939693 0   
     length 7.21735   
     axis 0 -0 -20   XYZ
    dof rx ry rz
    limits (-160.0 20.0)
           (-70.0 70.0)
           (-70.0 60.0)
  end
  begin
     id 8 
     name rtibia
     direction -0.34202 -0.939693 0   
     length 7.02558   
     axis 0 -0 -20   XYZ
    dof rx
    limits (-10.0 170.0)
 end
 begin
     id 9 
     name rfoot
     direction -0.16057 -0.441164 0.882945   
     length 2.10014  
     axis -90 1.13533e-015 -20   XYZ
    dof rx rz
    limits (-45.0 90.0)
           (-20.0 70.0)
  end
  begin
     id 10 
     name rtoes
     direction -1.53553e-011 -4.2192e-011 1   
     length 1.02554   
     axis -90 1.13533e-015 -20   XYZ
    dof rx
    limits (-90.0 20.0)
  end
  begin
     id 11 
     name lowerback
     direction 0.0401429 0.998861 -0.0258085   
     length 1.80848   
     axis 0 -0 0   XYZ
    dof rx ry rz
    limits (-20.0 45.0)
           (-30.0 30.0)
           (-30.0 30.0)
  end
  begin
     id 12 
     name upperback
     direction -0.0130978 0.999914 -0.000352645   
     length 1.8116   
     axis 0 -0 0   XYZ
    dof rx ry rz
    limits (-20.0 45.0)
           (-30.0 30.0)
           (-30.0 30.0)
  end
  begin
     id 13 
     name thorax
     direction -0.0300198 0.999453 0.0138573   
     length 1.81778   
     axis 0 -0 0   XYZ
    dof rx ry rz
    limits (-20.0 45.0)
           (-30.0 30.0)
           (-30.0 30.0)
  end
  begin
     id 14 
     name lowerneck
     direction -0.0401726 0.999191 -0.00173647   
     length 2.10594   
     axis 0 -0 0   XYZ
    dof rx ry rz
    limits (-20.0 45.0)
           (-30.0 30.0)
           (-30.0 30.0)
  end
  begin
     id 15 
     name upperneck
     direction 0.0119835 0.998501 0.0534085   
     length 2.07325   
     axis 0 -0 0   XYZ
    dof rx ry rz
    limits (-20.0 45.0)
           (-30.0 30.0)
           (-30.0 30.0)
  end
  begin
     id 16
     name head
     direction 0.00628309 0.999826 0.0175921  
     length 2.15096  
     axis 0 -0 0   XYZ
    dof rx ry rz
    limits (-20.0 45.0)
           (-30.0 30.0)
           (-30.0 30.0)
  end
  begin
     id 17 
     name lclavicle
     direction 0.895501 0.429681 -0.115981  
     length 4.18092  
     axis 0 -0 0   XYZ
    dof ry rz
    limits (-20.0 10.0)
           (0.0 20.0)
  end
  begin
     id 18 
     name lhumerus
     direction 1 -4.48961e-011 -3.38433e-028   
     length 5.77237   
     axis 180 -30 -90   XYZ
    dof rx ry rz
    limits (-60.0 90.0)
           (-90.0 90.0)
           (-90.0 90.0)
  end
  begin
     id 19
     name lradius
     direction 1 -4.4901e-011 1.11983e-026   
     length 2.91878   
     axis 180 -30 -90   XYZ
    dof rx
    limits (-10.0 170.0)
  end
  begin
     id 20
     name lwrist
     direction 1 -4.48934e-011 1.88176e-026   
     length 1.45939   
     axis -1.23311e-014 90 90   XYZ
    dof ry
    limits (-180.0 0.0)
 end
  begin
     id 21 
     name lhand
     direction 1 -4.4895e-011 3.76352e-026   
     length 1.06566   
     axis -2.40147e-014 90 90   XYZ
    dof rx rz
    limits (-90.0 90.0)
           (-45.0 45.0)
  end
  begin
     id 22 
     name lfingers
     direction 1 -4.49005e-011 7.52705e-026   
     length 0.859162   
     axis -4.80295e-014 90 90   XYZ
    dof rx
    limits (0.0 90.0)
  end
  begin
     id 23
     name lthumb
     direction 0.707107 -6.34885e-011 0.707107   
     length 1.23359   
     axis -90 45 -9.86935e-015   XYZ
    dof rx rz
    limits (-45.0 45.0)
           (-45.0 45.0)
  end
  begin
     id 24 
     name rclavicle
     direction -0.91006 0.40451 -0.0903492   
     length 4.23293  
     axis 0 -0 0   XYZ 
    dof ry rz
    limits (-10.0 20.0)
           (-20.0 0.0)
  end
  begin
     id 25 
     name rhumerus
     direction -1 -4.4897e-011 1.7415e-027  
     length 5.49854   
     axis 180 30 90   XYZ
    dof rx ry rz
    limits (-90.0 60.0)
           (-90.0 90.0)
           (-90.0 90.0)
  end
  begin
     id 26 
     name rradius
     direction -1 -4.48963e-011 1.21259e-026   
     length 3.1186   
     axis 180 30 90   XYZ
    dof rx
    limits (-10.0 170.0)
  end
  begin
     id 27 
     name rwrist
     direction -1 -4.48967e-011 1.88176e-026   
     length 1.5593   
     axis -1.23311e-014 -90 -90   XYZ
    dof ry
    limits (-180.0 0.0)
  end
  begin
     id 28
     name rhand
     direction -1 -4.4895e-011 3.76352e-026   
     length 0.71207   
     axis -2.40147e-014 -90 -90   XYZ
    dof rx rz
    limits (-90.0 90.0)
           (-45.0 45.0)
  end
  begin
     id 29
     name rfingers
     direction -1 -4.49005e-011 7.52705e-026   
     length 0.574089   
     axis -4.80295e-014 -90 -90   XYZ
    dof rx
    limits (0.0 90.0)
  end
  begin
     id 30
     name rthumb
     direction -0.707107 -6.34982e-011 0.707107   
     length 0.824281   
     axis -90 -45 9.86935e-015   XYZ
    dof rx rz
    limits (-45.0 45.0)
           (-45.0 45.0)
  end
:hierarchy
  begin
    root lhipjoint rhipjoint lowerback
    lhipjoint lfemur
    lfemur ltibia
    ltibia lfoot
    lfoot ltoes
    rhipjoint rfemur
    rfemur rtibia
    rtibia rfoot
    rfoot rtoes
    lowerback upperback
    upperback thorax
    thorax lowerneck lclavicle rclavicle
    lowerneck upperneck
    upperneck head
    lclavicle lhumerus
    lhumerus lradius
    lradius lwrist
    lwrist lhand lthumb
    lhand lfingers
    rclavicle rhumerus
    rhumerus rradius
    rradius rwrist
    rwrist rhand rthumb
    rhand rfingers
  end

#!OML:ASF C:\ViconDB\ViconDB\414\Spring2016\042216\male.ASF
:FULLY-SPECIFIED
:DEGREES
394
root 9.01325 17.0812 12.4258 -131.641 77.8723 -135.317
lowerback -3.96343 0.91603 14.4629
upperback -1.45657 0.750467 1.08154
thorax 0.847502 0.396335 -6.93451
lowerneck -3.69954 -2.36197 -8.34292
upperneck -9.52032 -2.29025 7.43862
head -2.24087 -0.91818 3.98113
rclavicle 1.4111e-015 -9.41742e-015
rhumerus -28.9124 23.9916 -103.585
rradius 106.882
rwrist 5.09687
rhand 17.842 -14.9344
rfingers 7.12502
rthumb 42.5197 -39.348
lclavicle 1.4111e-015 -9.41742e-015
lhumerus -58.0454 8.98509 85.6833
lradius 95.9211
lwrist 0.743334
lhand -24.5571 -2.05725
lfingers 7.12502
lthumb 1.93934 27.9137
rfemur 29.7034 4.81687 35.9846
rtibia 0
rfoot 21.4534 0.360905
rtoes -22.9618
lfemur -40.155 -4.54621 -15.3302
ltibia 46.82
lfoot -24.2945 13.5932
ltoes -13.2965
395
root 9.57824 17.1098 12.4116 -128.803 76.6731 -132.484
lowerback -5.1179 0.996031 15.7619
upperback -1.50725 0.613293 1.31235
thorax 1.41374 0.376035 -7.40746
lowerneck -3.89822 -2.49714 -8.20824
upperneck -9.07877 -2.46869 7.6992
head -2.03887 -1.02075 4.03346
rclavicle -2.64267e-014 3.70236e-014
rhumerus -29.9009 23.5803 -104.204
rradius 105.918
rwrist 5.29915
rhand 17.7459 -14.5044
rfingers 7.12502
rthumb 42.4297 -38.9488
lclavicle -2.64267e-014 3.70236e-014
lhumerus -57.7277 9.06494 85.3274
lradius 95.8659
lwrist 1.13253
lhand -24.0265 -2.25195
lfingers 7.12502
lthumb 2.45172 27.7137
rfemur 30.8099 5.0181 37.4087
rtibia -4.45278e-014
rfoot 21.852 -2.33043
rtoes -21.5314
lfemur -39.6384 -4.29918 -14.2385
ltibia 42.4292
lfoot -22.4526 11.3348
ltoes -13.139
396
root 10.1343 17.1417 12.4072 -127.199 75.8887 -130.855
lowerback -6.06992 1.09521 16.4371
upperback -1.50293 0.532597 1.44874
thorax 1.93497 0.38368 -7.63372
lowerneck -4.18517 -2.70521 -8.29888
upperneck -8.65799 -2.72183 8.14578
head -1.81773 -1.15158 4.19498
rclavicle -2.6165e-014 2.32081e-014
rhumerus -30.6637 22.8979 -104.566
rradius 104.678
rwrist 4.98798
rhand 17.6576 -14.6121
rfingers 7.12502
rthumb 42.3471 -39.0848
lclavicle -2.6165e-014 2.32081e-014
lhumerus -57.1554 9.01539 85.2696
lradius 95.5354
lwrist 1.08648
lhand -24.1493 -2.37555
lfingers 7.12502
lthumb 2.33321 27.5914
rfemur 31.8628 5.29714 38.4258
rtibia 0
rfoot 22.7054 -4.79871
rtoes -21.9144
lfemur -38.9359 -4.10408 -13.4978
ltibia 38.4843
lfoot -20.4537 8.86444
ltoes -12.9711
397
root 10.6745 17.1584 12.4021 -126.708 75.5586 -130.26
lowerback -6.65158 1.16986 16.7213
upperback -1.51484 0.502063 1.41887
thorax 2.24292 0.394985 -7.82272
lowerneck -4.32892 -2.85601 -8.33206
upperneck -8.43245 -2.90023 8.57902
head -1.69395 -1.245 4.3483
rclavicle -3.25572e-014 -1.64991e-014
rhumerus -31.4677 22.0289 -104.85
rradius 103.158
rwrist 4.92818
rhand 17.7352 -14.6801
rfingers 7.12502
rthumb 42.4197 -39.1279
lclavicle -3.25572e-014 -1.64991e-014
lhumerus -56.4079 8.70324 85.3036
lradius 95.2336
lwrist 1.7932
lhand -24.1291 -2.17812
lfingers 7.12502
lthumb 2.35264 27.7887
rfemur 27.4864 5.62562 38.9068
rtibia 11.0837
rfoot 17.9828 -7.21033
rtoes -22.9907
lfemur -37.9577 -3.99553 -13.2641
ltibia 35.1715
lfoot -18.2218 6.82606
ltoes -12.7499
398
root 11.2011 17.1521 12.4003 -125.794 75.2251 -129.072
lowerback -6.93643 1.20921 16.9993
upperback -1.47979 0.476771 1.5207
thorax 2.43436 0.404048 -7.86632
lowerneck -4.43595 -3.00226 -8.52488
upperneck -8.30871 -3.07149 8.92533
head -1.6097 -1.32787 4.50555
rclavicle -2.02698e-014 -8.49804e-014
rhumerus -32.2729 21.2053 -104.9
rradius 101.393
rwrist 4.69523
rhand 17.3767 -14.8968
rfingers 7.12502
rthumb 42.0839 -39.4587
lclavicle -2.02698e-014 -8.49804e-014
lhumerus -55.5218 8.54826 85.4442
lradius 94.7176
lwrist 2.60238
lhand -23.9278 -2.04731
lfingers 7.12502
lthumb 2.54713 27.9172
rfemur 24.0049 5.19361 38.9749
rtibia 20.2662
rfoot 14.493 -8.51089
rtoes -23.0343
lfemur -36.6859 -3.94366 -12.7714
ltibia 32.5781
lfoot -16.5422 5.29953
ltoes -13.2643
399
root 11.7168 17.119 12.3968 -124.496 74.9136 -127.266
lowerback -6.77182 1.21779 17.37
upperback -1.45984 0.497352 1.63685
thorax 2.36797 0.415073 -7.94354
lowerneck -4.44566 -3.08244 -8.47554
upperneck -8.3838 -3.13822 9.39131
head -1.4413 -1.38513 4.20866
rclavicle -2.27981e-015 -1.56046e-014
rhumerus -33.1299 20.3577 -104.834
rradius 99.6187
rwrist 4.39987
rhand 17.4128 -15.4363
rfingers 7.12502
rthumb 42.1177 -39.9868
lclavicle -2.27981e-015 -1.56046e-014
lhumerus -54.4987 8.35224 85.6501
lradius 94.0947
lwrist 3.94551
lhand -23.9372 -1.44505
lfingers 7.12502
lthumb 2.538 28.5196
rfemur 21.3941 4.61857 38.9583
rtibia 27.8369
rfoot 12.0719 -9.48186
rtoes -22.1522
lfemur -35.2296 -3.86986 -12.1717
ltibia 31.1212
lfoot -14.9392 4.70842
ltoes -15.0851
400
root 12.2212 17.077 12.4 -124.496 74.7869 -126.808
lowerback -6.53552 1.02147 17.2174
upperback -1.40365 0.289471 1.71796
thorax 2.24036 0.304119 -7.79083
lowerneck -4.50812 -3.05161 -8.41805
upperneck -8.39597 -3.08559 9.48179
head -1.43791 -1.3596 4.22675
rclavicle -2.46928e-014 -9.93923e-016
rhumerus -33.7047 19.594 -104.786
rradius 97.4017
rwrist 4.16959
rhand 17.5236 -15.6986
rfingers 7.12502
rthumb 42.2215 -40.214
lclavicle -2.46928e-014 -9.93923e-016
lhumerus -53.3997 8.33045 85.8376
lradius 93.4552
lwrist 5.45806
lhand -23.4426 -1.10432
lfingers 7.12502
lthumb 3.01564 28.8541
rfemur 18.9514 3.72281 38.4165
rtibia 34.5736
rfoot 10.1586 -10.2863
rtoes -23.1884
lfemur -34.2496 -3.72728 -12.0582
ltibia 31.581
lfoot -12.3447 4.44916
ltoes -20.2125
